# xmcd
#
# Track frame offsets:
#	150
#	22638
#	40626
#	58356
#	73416
#
# Disc length: 1189 seconds
#
# Revision: 0
# Processed by: cddbd v1.5.2PL0 Copyright (c) Steve Scherf et al.
# Submitted via: dBpowerAMP V4.0
#
DISCID=3e04a305
DTITLE=Various Artist - Today's #1 Hits Volume 2
DYEAR=1900
DGENRE=Country
TTITLE0=Tim McGraw - Live Like You Were Dying
TTITLE1=LeAnn Rimes - Something's Gotta Give
TTITLE2=Rodney Atkins - Watching You
TTITLE3=Jo Dee Messina - Bye Bye 
TTITLE4=Steve Holy - Good Morning Beautiful
EXTD=
EXTT0=
EXTT1=
EXTT2=
EXTT3=
EXTT4=
PLAYORDER=
